<?xml version="1.0" encoding="utf-8"?>
<!-- Generator: Adobe Illustrator 23.0.1, SVG Export Plug-In . SVG Version: 6.00 Build 0)  -->
<svg version="1.1" id="Layer_1" xmlns="http://www.w3.org/2000/svg" xmlns:xlink="http://www.w3.org/1999/xlink" x="0px" y="0px"
	 viewBox="0 0 50 50" enable-background="new 0 0 50 50" xml:space="preserve">
<path id="Lock_Icon_3_" d="M40.3,47.8H9.7c-1.1,0-2-0.9-2-2V25.9c0-1.1,0.9-2,2-2h2v-8.4c0-7.3,6-13.3,13.3-13.3
	c7.4,0,13.3,5.9,13.3,13.3v8.4h2c1.1,0,2,0.9,2,2v19.9C42.3,46.9,41.4,47.8,40.3,47.8z M32.1,15.9c0-3.9-3.2-7-7.1-7
	c-3.9,0-7.1,3.1-7.1,7v8h14.1L32.1,15.9L32.1,15.9z"/>
</svg>
